<svg width="11" height="12" viewBox="0 0 11 12" fill="none" xmlns="http://www.w3.org/2000/svg">
<path d="M5.39155 11.3333C3.8939 11.3333 2.62089 10.809 1.57253 9.76055C0.524178 8.71206 0 7.43889 0 5.94104C0 4.59298 0.396878 3.44963 1.19063 2.51097C1.98439 1.57232 3.02526 0.968192 4.31324 0.69858C4.7226 0.618695 5.00216 0.688594 5.15192 0.908279C5.30169 1.12796 5.2967 1.42753 5.13695 1.80699C5.04709 2.03666 4.9772 2.27132 4.92728 2.51097C4.87735 2.75063 4.85239 2.99528 4.85239 3.24492C4.85239 4.14363 5.1669 4.90753 5.79591 5.53663C6.42493 6.16572 7.18873 6.48027 8.08732 6.48027C8.33693 6.48027 8.57905 6.4578 8.81368 6.41287C9.04832 6.36793 9.27546 6.30552 9.49512 6.22564C9.92444 6.06586 10.2439 6.07335 10.4536 6.2481C10.6633 6.42285 10.7182 6.71992 10.6184 7.13932C10.3488 8.34758 9.74472 9.34865 8.8062 10.1425C7.86767 10.9364 6.72945 11.3333 5.39155 11.3333Z" fill="#F8F8F8"/>
</svg>
