<svg width="12" height="12" viewBox="0 0 12 12" fill="none" xmlns="http://www.w3.org/2000/svg">
<path d="M5.99999 8.4242C5.32928 8.4242 4.75757 8.18784 4.28484 7.71511C3.81211 7.24238 3.57575 6.67067 3.57575 5.99996C3.57575 5.32925 3.81211 4.75753 4.28484 4.28481C4.75757 3.81208 5.32928 3.57572 5.99999 3.57572C6.6707 3.57572 7.24241 3.81208 7.71514 4.28481C8.18787 4.75753 8.42423 5.32925 8.42423 5.99996C8.42423 6.67067 8.18787 7.24238 7.71514 7.71511C7.24241 8.18784 6.6707 8.4242 5.99999 8.4242ZM1.03029 6.3636C0.925242 6.3636 0.838374 6.32925 0.769687 6.26057C0.701 6.19188 0.666656 6.10501 0.666656 5.99996C0.666656 5.89491 0.701 5.80804 0.769687 5.73935C0.838374 5.67067 0.925242 5.63632 1.03029 5.63632H2.24241C2.34746 5.63632 2.43433 5.67067 2.50302 5.73935C2.57171 5.80804 2.60605 5.89491 2.60605 5.99996C2.60605 6.10501 2.57171 6.19188 2.50302 6.26057C2.43433 6.32925 2.34746 6.3636 2.24241 6.3636H1.03029ZM9.75757 6.3636C9.65251 6.3636 9.56565 6.32925 9.49696 6.26057C9.42827 6.19188 9.39393 6.10501 9.39393 5.99996C9.39393 5.89491 9.42827 5.80804 9.49696 5.73935C9.56565 5.67067 9.65251 5.63632 9.75757 5.63632H10.9697C11.0747 5.63632 11.1616 5.67067 11.2303 5.73935C11.299 5.80804 11.3333 5.89491 11.3333 5.99996C11.3333 6.10501 11.299 6.19188 11.2303 6.26057C11.1616 6.32925 11.0747 6.3636 10.9697 6.3636H9.75757ZM5.99999 2.60602C5.89494 2.60602 5.80807 2.57168 5.73938 2.50299C5.6707 2.4343 5.63635 2.34743 5.63635 2.24238V1.03026C5.63635 0.925212 5.6707 0.838343 5.73938 0.769656C5.80807 0.700969 5.89494 0.666626 5.99999 0.666626C6.10504 0.666626 6.19191 0.700969 6.2606 0.769656C6.32928 0.838343 6.36363 0.925212 6.36363 1.03026V2.24238C6.36363 2.34743 6.32928 2.4343 6.2606 2.50299C6.19191 2.57168 6.10504 2.60602 5.99999 2.60602ZM5.99999 11.3333C5.89494 11.3333 5.80807 11.2989 5.73938 11.2303C5.6707 11.1616 5.63635 11.0747 5.63635 10.9697V9.75753C5.63635 9.65248 5.6707 9.56562 5.73938 9.49693C5.80807 9.42824 5.89494 9.3939 5.99999 9.3939C6.10504 9.3939 6.19191 9.42824 6.2606 9.49693C6.32928 9.56562 6.36363 9.65248 6.36363 9.75753V10.9697C6.36363 11.0747 6.32928 11.1616 6.2606 11.2303C6.19191 11.2989 6.10504 11.3333 5.99999 11.3333ZM3.0909 3.59996L2.39999 2.92117C2.32726 2.84844 2.29292 2.76158 2.29696 2.66057C2.301 2.55956 2.33534 2.47269 2.39999 2.39996C2.47272 2.32723 2.55959 2.29087 2.6606 2.29087C2.76161 2.29087 2.84847 2.32723 2.9212 2.39996L3.59999 3.09087C3.66464 3.1636 3.69696 3.24844 3.69696 3.34541C3.69696 3.44238 3.66464 3.52319 3.59999 3.58784C3.53534 3.66057 3.45251 3.69693 3.3515 3.69693C3.25049 3.69693 3.16363 3.66461 3.0909 3.59996ZM9.07878 9.59996L8.39999 8.90905C8.33534 8.83632 8.30302 8.74945 8.30302 8.64844C8.30302 8.54743 8.33938 8.46461 8.41211 8.39996C8.47676 8.32723 8.55757 8.29087 8.65454 8.29087C8.7515 8.29087 8.83635 8.32723 8.90908 8.39996L9.59999 9.07875C9.67272 9.15147 9.70706 9.23834 9.70302 9.33935C9.69898 9.44036 9.66464 9.52723 9.59999 9.59996C9.52726 9.67269 9.44039 9.70905 9.33938 9.70905C9.23837 9.70905 9.1515 9.67269 9.07878 9.59996ZM8.39999 3.59996C8.32726 3.52723 8.2909 3.44238 8.2909 3.34541C8.2909 3.24844 8.32726 3.1636 8.39999 3.09087L9.07878 2.39996C9.1515 2.32723 9.23837 2.29289 9.33938 2.29693C9.44039 2.30097 9.52726 2.33531 9.59999 2.39996C9.67272 2.47269 9.70908 2.55956 9.70908 2.66057C9.70908 2.76158 9.67272 2.84844 9.59999 2.92117L8.90908 3.59996C8.84443 3.66461 8.76161 3.69693 8.6606 3.69693C8.55959 3.69693 8.47272 3.66461 8.39999 3.59996ZM2.39999 9.59996C2.32726 9.52723 2.2909 9.44036 2.2909 9.33935C2.2909 9.23834 2.32726 9.15147 2.39999 9.07875L3.0909 8.39996C3.16363 8.32723 3.24847 8.29087 3.34544 8.29087C3.44241 8.29087 3.52726 8.32723 3.59999 8.39996C3.67272 8.47269 3.70908 8.55754 3.70908 8.65451C3.70908 8.75148 3.67272 8.83632 3.59999 8.90905L2.9212 9.59996C2.84847 9.67269 2.76161 9.70703 2.6606 9.70299C2.55959 9.69895 2.47272 9.66461 2.39999 9.59996Z" fill="#F8F8F8"/>
</svg>
